<?xml version="1.0" encoding="UTF-8"?><svg id="Ebene_1" xmlns="http://www.w3.org/2000/svg" viewBox="0 0 663.79 361.41"><defs><style>.cls-1{fill:#321478;}</style></defs><path class="cls-1" d="M518.86,111.62c1.59,7.68-1.78,14.87-7.54,16.06s-11.71-4.06-13.31-11.74c-1.59-7.68,1.78-14.87,7.54-16.06s11.71,4.06,13.31,11.74ZM543.86,133.05c7.42,2.64,16.37-3.49,20-13.69s.56-20.61-6.86-23.25-16.37,3.49-20,13.69-.56,20.61,6.86,23.25ZM658.33,25.83c-14.19-21.92-38.72-18.93-61.05-18.76-13.9.1-18.28-7.73-27.97-7.03-7.84.76-14.59,6.42-18.95,12.68-1.49,2.19-2.58,4.44-3.03,6.52-1.52,8.22,7.05,11.43,12.03,5.88,3.52-3,6.99-8.17,11.92-8.72,16.14-.4,36.56,41.24,44.31,61.2,5.14,15.69,11.8,48.16,16.94,61.67.74,1.86,1.94,3.18,4.07,3.09h.27c1.71-.23,4.64-1.35,6.49-2.89,8.95-6.07,6.42-17.97,7.38-27.57,2.36-38.96,22.51-63.68,7.58-86.05v-.02ZM402.8,142.31c-.39,1.88-1.22,4.32-.09,5.86l.13.13c.41.45,1.53.6,2.51.36,8.74-2.33,14.03-11.17,17.81-18.9,6.7-13.25,13.39-26.93,21.75-39.02,8.54-13.24,53.63-70.1,63.61-32.41,3.1,13.87,11.33,4.34,12.39-7.52.39-4.75-.41-9.46-2.65-13.41-10.7-17.14-22.98-6.66-38-7.78-23.81-3.38-51.38-18.37-69.59,6.68-24.31,31.32.06,71.74-7.86,106h-.01ZM212.95,183.46c-10.27,39.31-44.8,72.34-80.31,76.83-.25.03-.51.05-.75.05-3.26,0-5.97-2.69-6.04-6.01l-.33-15.93c-.06-2.98,2.05-5.62,4.92-6.12,23.47-4.15,49.5-30.59,55.71-56.58,2.84-11.89,2.78-28.64-13.64-40.98-5.89-4.44-12.83-6.79-20.05-6.79-9.47,0-19.27,4.08-28.35,11.79-18.05,14.95-35.35,43.23-47.45,77.57-.05.13-.04.28.02.41s.18.23.31.27c14.47,4.66,26.18,15.17,33.85,30.41,6.79,13.5,10.23,30.42,9.67,47.65-1.23,38.02-18.99,59.38-36.05,63.67-3.72.94-7.3,1.41-10.65,1.41-9.65,0-17.74-3.9-24.06-11.6-17.12-20.87-17.87-65.73-11.32-98.57.04-.21-.04-.42-.22-.54-.09-.06-.2-.1-.31-.1-.09,0-.19.03-.27.08-5.5,3.31-10.22,7.21-14.43,11.91-1.19,1.32-2.88,2.08-4.64,2.08-1.37,0-2.66-.45-3.74-1.29l-12.49-9.79c-1.34-1.05-2.16-2.56-2.31-4.26-.15-1.72.4-3.37,1.55-4.67,12.92-14.51,29.37-24.62,45.13-27.75.19-.04.34-.17.4-.36,13.76-42.55,35.23-78.34,58.93-98.19,15.5-12.66,32.36-19.36,48.73-19.36,12.69,0,24.75,4,34.88,11.57,22.59,16.71,31.07,43.38,23.29,73.18h.02ZM69.02,245.23c-.06-.02-.11-.03-.17-.03-.09,0-.17.02-.25.06-.13.07-.23.19-.26.34-6.16,24.98-5.33,71.95,3.93,83.96,1.56,2.02,3.33,3.06,5.25,3.09h.32c7.23,0,12.97-8.57,15.38-22.94,3.58-21.43-1.63-56.75-24.2-64.5v.02ZM608.93,145.47c37.2,78.53-7.09,164.76-20.07,183.59-14.59,21.16-32.37,32.35-51.43,32.35-2.12,0-4.29-.14-6.44-.41-12.05-1.57-29.23-7.5-42.74-26.81-19,17.95-35.98,26.68-51.92,26.68-.95,0-1.91-.03-2.85-.1-14.76-1.02-26.31-7.02-34.32-17.85-14.6-19.73-17.05-54.66-6.91-98.34,1.62-7.15,3.45-14.04,5.45-20.71-15.33-6.21-33.56-4-36.71-3.39.7,11.26.8,23.49.25,35.11-.62,18.52-.52,104.43-55.68,105.05-36.35.61-50.95-41.54-42.22-79.77,6.86-28.77,25.64-57.31,50.83-72.59,4.91-2.99,10.14-5.99,15.39-8.36-2.08-14.98-9.12-56.13-28.56-56.09-39.09.11-69.27,122.2-68.31,202.04.04,3.49-2.69,6.36-6.18,6.48l-16.03.55c-3.58.12-6.56-2.72-6.63-6.31-.69-40.14,4.64-83.21,14.91-122.21,6.73-25.17,17.53-55.92,33.6-78.4l-.05.05c3.19-5.09,4.06-7.13-2.32-10.56-9.41-5.78-17.46-13.06-20.7-23.51-12.04-40.68,51.97-41.64,56.91-16.98.56,12.47-16.71,5.76-25.24,5.79-3.94-.32-8.39,2.74-7.84,7.49.89,9.95,10.95,20.34,20.75,15.84,9.51-6.44,20.28-9.91,32.41-8.98,36.15,2.85,46.6,52.03,50.89,76.65,4.49-.72,29.28-2.61,50.32,4.76,8.47-20.01,19.06-37.74,31.9-53.7,1.23-1.53,3.07-2.4,5.04-2.4,1.41,0,2.75.44,3.89,1.28l12.65,9.36c1.42,1.05,2.34,2.59,2.57,4.34.24,1.76-.23,3.5-1.33,4.9-20.53,26.23-33.16,52.05-41.77,87.87-10.18,42.4-6.8,75.58,8.42,82.57,1.7.75,3.62,1.13,5.73,1.13,13.35,0,31.75-15.22,40.94-25.52-7.98-26.62-9.69-64.34-4.37-96.15,10.15-57.3,35.99-65.85,50.49-65.85,2.73,0,5.57.28,8.46.83,11.68,2.2,20.12,7.85,25.1,16.78,11.32,20.29,2.81,52.86-6.31,76.6-10.29,25.89-25.55,53.18-40.84,73.03,6.82,13.04,15.47,19.97,26.44,21.18.95.1,1.91.16,2.86.16,28.56,0,80.04-102.22,46.78-173.22-1.46-3.11-.51-6.73,2.36-8.51l13.24-8.2c1.03-.64,2.22-.98,3.43-.98,2.41,0,4.71,1.26,5.74,3.43h.02ZM332.82,230.85c-26.14,15-40.92,41.52-42.8,69.18-.85,11.94,2.6,30.33,14.56,31.8,15.43,1.98,22.76-22.09,25.97-47.6,2.71-21.73,2.56-44.61,2.26-53.38h.01ZM498.52,275.9c6.51-10.6,18.76-33.4,27.01-54.87,5.73-14.78,11.51-34.25,6.48-43.12-1.42-2.5-3.66-4.03-6.65-4.54-.77-.12-1.54-.18-2.29-.18-14.99,0-21.4,24.38-24.13,44.83-2.49,20.66-2.1,44.53-.42,57.88h0Z"/></svg>