<?xml version="1.0" encoding="UTF-8"?><svg id="Ebene_1" xmlns="http://www.w3.org/2000/svg" viewBox="0 0 988.35 1125.22"><defs><style>.cls-1{fill:#fff;}</style></defs><path class="cls-1" d="M468.5,514.25c25.85-2.24,50.2.37,75.05,7.83,122.56,36.85,78.24,140.29,133.29,225.66,54.6,84.68,170.46,93.19,159.59,216.16-4.04,45.62-28.17,108.02-66.96,134.39-118.61,80.63-199.32-43.55-306.07-64.16-134.59-25.99-236.87,123.91-363.4,13.22-50.41-44.1-65.27-127.34-35.78-187.37,35.49-72.23,121.74-82.7,178.77-130.57,91.13-76.51,77.61-202.29,225.51-215.15"/><path class="cls-1" d="M693.86,26.12c71.56-1.06,116.74,112.02,124.45,170.9,11.72,89.51-6.39,194.41-101.42,228.86-55.97,20.29-136.38-5.55-142.47-71.64-5.82-63.07,31.48-218.15,59.14-276.95,12.25-26.04,28.34-50.7,60.29-51.18"/><path class="cls-1" d="M291.66,357.29c-66.98-67.07-48.31-176.28-4.02-250.34,19.31-32.29,74.56-98.83,112.71-105.29,60.76-10.3,80.2,28.62,89.21,80.24,14.94,85.53,32.37,236.84-45.26,297.27-43.05,33.52-116.73,14.08-152.65-21.88"/><path class="cls-1" d="M98.3,303.7c25.18-4.28,44.62,5.82,61.05,24.37,18.12,20.48,72.56,105.56,84.56,130.81,36.31,76.39-2.42,140.32-70.56,177.24C52.14,701.81-14.43,596.23,2.64,483.81c7.23-47.6,39.77-170.62,95.66-180.11"/><path class="cls-1" d="M790.7,698.68c-89.58-62.26-29.53-157.62,25.37-220.89,48.34-55.69,142.54-128.49,167.32-9.84,23.82,114.09-37.81,338.38-192.68,230.73"/></svg>